<svg id="visual" viewBox="0 0 900 600" width="900" height="600" xmlns="http://www.w3.org/2000/svg" xmlns:xlink="http://www.w3.org/1999/xlink" version="1.1"><rect x="0" y="0" width="900" height="600" fill="#570000"></rect><path d="M0 334L21.5 330.7C43 327.3 86 320.7 128.8 316.8C171.7 313 214.3 312 257.2 311C300 310 343 309 385.8 300C428.7 291 471.3 274 514.2 265.7C557 257.3 600 257.7 642.8 278C685.7 298.3 728.3 338.7 771.2 346.7C814 354.7 857 330.3 878.5 318.2L900 306L900 601L878.5 601C857 601 814 601 771.2 601C728.3 601 685.7 601 642.8 601C600 601 557 601 514.2 601C471.3 601 428.7 601 385.8 601C343 601 300 601 257.2 601C214.3 601 171.7 601 128.8 601C86 601 43 601 21.5 601L0 601Z" fill="#eca538"></path><path d="M0 407L21.5 401.5C43 396 86 385 128.8 378.5C171.7 372 214.3 370 257.2 360C300 350 343 332 385.8 325.2C428.7 318.3 471.3 322.7 514.2 338.5C557 354.3 600 381.7 642.8 395.3C685.7 409 728.3 409 771.2 396.2C814 383.3 857 357.7 878.5 344.8L900 332L900 601L878.5 601C857 601 814 601 771.2 601C728.3 601 685.7 601 642.8 601C600 601 557 601 514.2 601C471.3 601 428.7 601 385.8 601C343 601 300 601 257.2 601C214.3 601 171.7 601 128.8 601C86 601 43 601 21.5 601L0 601Z" fill="#df8c2c"></path><path d="M0 438L21.5 427.8C43 417.7 86 397.3 128.8 394.5C171.7 391.7 214.3 406.3 257.2 417.2C300 428 343 435 385.8 442.2C428.7 449.3 471.3 456.7 514.2 446.7C557 436.7 600 409.3 642.8 406C685.7 402.7 728.3 423.3 771.2 428.2C814 433 857 422 878.5 416.5L900 411L900 601L878.5 601C857 601 814 601 771.2 601C728.3 601 685.7 601 642.8 601C600 601 557 601 514.2 601C471.3 601 428.7 601 385.8 601C343 601 300 601 257.2 601C214.3 601 171.7 601 128.8 601C86 601 43 601 21.5 601L0 601Z" fill="#d07422"></path><path d="M0 506L21.5 502.3C43 498.7 86 491.3 128.8 482.8C171.7 474.3 214.3 464.7 257.2 456.5C300 448.3 343 441.7 385.8 441C428.7 440.3 471.3 445.7 514.2 452.8C557 460 600 469 642.8 479C685.7 489 728.3 500 771.2 498C814 496 857 481 878.5 473.5L900 466L900 601L878.5 601C857 601 814 601 771.2 601C728.3 601 685.7 601 642.8 601C600 601 557 601 514.2 601C471.3 601 428.7 601 385.8 601C343 601 300 601 257.2 601C214.3 601 171.7 601 128.8 601C86 601 43 601 21.5 601L0 601Z" fill="#c15c1a"></path><path d="M0 509L21.5 517.8C43 526.7 86 544.3 128.8 547.8C171.7 551.3 214.3 540.7 257.2 537C300 533.3 343 536.7 385.8 535.3C428.7 534 471.3 528 514.2 523.7C557 519.3 600 516.7 642.8 520.3C685.7 524 728.3 534 771.2 535.8C814 537.7 857 531.3 878.5 528.2L900 525L900 601L878.5 601C857 601 814 601 771.2 601C728.3 601 685.7 601 642.8 601C600 601 557 601 514.2 601C471.3 601 428.7 601 385.8 601C343 601 300 601 257.2 601C214.3 601 171.7 601 128.8 601C86 601 43 601 21.5 601L0 601Z" fill="#b04314"></path></svg>